<?xml version="1.0" encoding="UTF-8"?>
<!DOCTYPE svg PUBLIC "-//W3C//DTD SVG 1.1//EN" "http://www.w3.org/Graphics/SVG/1.1/DTD/svg11.dtd">
<!-- Creator: CorelDRAW 2020 (64-Bit) -->
<svg xmlns="http://www.w3.org/2000/svg" xml:space="preserve" width="512px" height="512px" version="1.1" shape-rendering="geometricPrecision" text-rendering="geometricPrecision" image-rendering="optimizeQuality" fill-rule="evenodd" clip-rule="evenodd"
viewBox="0 0 120.61 120.61"
 xmlns:xlink="http://www.w3.org/1999/xlink"
 xmlns:xodm="http://www.corel.com/coreldraw/odm/2003">
 <g id="Layer_x0020_1">
  <metadata id="CorelCorpID_0Corel-Layer"/>
  <g id="_2321213075680">
   <rect fill="none" width="120.61" height="120.61"/>
   <g>
    <path fill="#F79633" d="M53.85 24.81l-31.48 0c-2.57,0 -4.67,2.1 -4.67,4.67 0,23.44 0,38.62 0,62.06 0,2.34 1.92,4.26 4.26,4.26l76.69 0c2.34,0 4.26,-1.92 4.26,-4.26 0,-19.02 0,-34.03 0,-53.04 0,-2.57 -2.1,-4.67 -4.67,-4.67l-33.49 0 -5.95 -5.97c-1.25,-1.73 -2.8,-2.93 -4.95,-3.05z"/>
    <rect fill="#FEFEFE" x="22.32" y="38.12" width="75.36" height="40.86"/>
    <path fill="#FFCC29" d="M98.65 95.8c2.34,0 4.26,-1.92 4.26,-4.26l0 -39.49 0 -1.7c0,-2.57 -2.1,-4.67 -4.67,-4.67l-75.87 0c-2.57,0 -4.67,2.1 -4.67,4.67l0 1.7 0 30.96 0 8.53c0,2.34 1.92,4.26 4.26,4.26l76.69 0z"/>
   </g>
  </g>
 </g>
</svg>
