<?xml version="1.0" encoding="UTF-8"?>
<!DOCTYPE svg PUBLIC "-//W3C//DTD SVG 1.1//EN" "http://www.w3.org/Graphics/SVG/1.1/DTD/svg11.dtd">
<!-- Creator: CorelDRAW 2020 (64-Bit) -->
<svg xmlns="http://www.w3.org/2000/svg" xml:space="preserve" width="640px" height="360px" version="1.1" shape-rendering="geometricPrecision" text-rendering="geometricPrecision" image-rendering="optimizeQuality" fill-rule="evenodd" clip-rule="evenodd"
viewBox="0 0 7890.57 4438.45"
 xmlns:xlink="http://www.w3.org/1999/xlink"
 xmlns:xodm="http://www.corel.com/coreldraw/odm/2003">
 <g id="Layer_x0020_1">
  <metadata id="CorelCorpID_0Corel-Layer"/>
  <g id="_2320446385664">
   <rect fill="#4B4B4D" width="7890.57" height="4438.44"/>
   <g>
    <path fill="#373435" d="M3871.89 988.02l-1262.84 0c-102.96,0 -187.19,84.23 -187.19,187.2 0,939.97 0,1548.91 0,2488.88 0,94 76.89,170.87 170.87,170.87l3075.7 0c93.99,0 170.87,-76.87 170.87,-170.87 0,-762.62 0.01,-1364.61 0.01,-2127.23 0,-102.98 -84.24,-187.2 -187.2,-187.2l-1343.37 0 -238.59 -239.6c-49.89,-69.33 -112.29,-117.47 -198.26,-122.05z"/>
    <g>
     <path fill="#F79633" d="M3686.6 795.75l-1262.85 0c-102.96,0 -187.19,84.23 -187.19,187.2 0,939.97 0,1548.91 0,2488.88 0,94 76.89,170.86 170.88,170.86l3075.69 0c93.99,0 170.87,-76.86 170.87,-170.86 0,-762.62 0.01,-1364.62 0.01,-2127.23 0,-102.98 -84.23,-187.2 -187.2,-187.2l-1343.37 0 -238.59 -239.6c-49.89,-69.33 -112.29,-117.47 -198.25,-122.05z"/>
     <rect fill="#FEFEFE" x="2421.91" y="1329.36" width="3022.34" height="1638.99"/>
     <path fill="#FFCC29" d="M5483.14 3642.69c93.98,0 170.87,-76.86 170.87,-170.87l0 -1583.56 0 -68.4c0,-102.97 -84.22,-187.19 -187.2,-187.19l-3043.06 0c-102.97,0 -187.19,84.22 -187.19,187.19l0 68.4 0 1241.82 0 341.74c0,94.01 76.89,170.87 170.87,170.87l3075.71 0z"/>
    </g>
   </g>
  </g>
 </g>
</svg>
